<svg width="338" height="223" viewBox="0 0 338 223" fill="none" xmlns="http://www.w3.org/2000/svg">
<path d="M10.91 59.52V58.52H9.91V59.52H10.91ZM28.25 59.52L29.2217 59.2838L29.036 58.52H28.25V59.52ZM44.74 127.35L43.7683 127.586L45.74 127.35H44.74ZM44.74 59.52V58.52H43.74V59.52H44.74ZM62.25 59.52H63.25V58.52H62.25V59.52ZM62.25 186V187H63.25V186H62.25ZM46.61 186L45.6404 186.245L45.831 187H46.61V186ZM28.25 113.24L29.2196 112.995L27.25 113.24H28.25ZM28.25 186V187H29.25V186H28.25ZM10.91 186H9.91V187H10.91V186ZM10.91 60.52H28.25V58.52H10.91V60.52ZM27.2783 59.7562L43.7683 127.586L45.7117 127.114L29.2217 59.2838L27.2783 59.7562ZM45.74 127.35V59.52H43.74V127.35H45.74ZM44.74 60.52H62.25V58.52H44.74V60.52ZM61.25 59.52V186H63.25V59.52H61.25ZM62.25 185H46.61V187H62.25V185ZM47.5796 185.755L29.2196 112.995L27.2804 113.485L45.6404 186.245L47.5796 185.755ZM27.25 113.24V186H29.25V113.24H27.25ZM28.25 185H10.91V187H28.25V185ZM11.91 186V59.52H9.91V186H11.91ZM70.0116 59.52V58.52H69.0116V59.52H70.0116ZM113.702 59.52H114.702V58.52H113.702V59.52ZM113.702 77.88V78.88H114.702V77.88H113.702ZM89.2216 77.88V76.88H88.2216V77.88H89.2216ZM89.2216 111.03H88.2216V112.03H89.2216V111.03ZM108.432 111.03H109.432V110.03H108.432V111.03ZM108.432 130.24V131.24H109.432V130.24H108.432ZM89.2216 130.24V129.24H88.2216V130.24H89.2216ZM89.2216 166.79H88.2216V167.79H89.2216V166.79ZM114.722 166.79H115.722V165.79H114.722V166.79ZM114.722 186V187H115.722V186H114.722ZM70.0116 186H69.0116V187H70.0116V186ZM70.0116 60.52H113.702V58.52H70.0116V60.52ZM112.702 59.52V77.88H114.702V59.52H112.702ZM113.702 76.88H89.2216V78.88H113.702V76.88ZM88.2216 77.88V111.03H90.2216V77.88H88.2216ZM89.2216 112.03H108.432V110.03H89.2216V112.03ZM107.432 111.03V130.24H109.432V111.03H107.432ZM108.432 129.24H89.2216V131.24H108.432V129.24ZM88.2216 130.24V166.79H90.2216V130.24H88.2216ZM89.2216 167.79H114.722V165.79H89.2216V167.79ZM113.722 166.79V186H115.722V166.79H113.722ZM114.722 185H70.0116V187H114.722V185ZM71.0116 186V59.52H69.0116V186H71.0116ZM132.894 118.34L133.865 118.579L133.924 118.342L133.866 118.104L132.894 118.34ZM118.614 59.52V58.52H117.342L117.643 59.7559L118.614 59.52ZM138.164 59.52L139.144 59.3199L138.981 58.52H138.164V59.52ZM146.324 99.47L145.345 99.6701L147.306 99.6621L146.324 99.47ZM154.144 59.52V58.52H153.321L153.163 59.3279L154.144 59.52ZM172.844 59.52L173.815 59.7586L174.12 58.52H172.844V59.52ZM158.394 118.34L157.423 118.101L157.365 118.338L157.422 118.574L158.394 118.34ZM174.714 186V187H175.984L175.686 185.766L174.714 186ZM154.824 186L153.845 186.204L154.011 187H154.824V186ZM145.304 140.27L146.283 140.066L144.326 140.063L145.304 140.27ZM135.614 186V187H136.425L136.593 186.207L135.614 186ZM116.234 186L115.263 185.761L114.958 187H116.234V186ZM133.866 118.104L119.586 59.2841L117.643 59.7559L131.923 118.576L133.866 118.104ZM118.614 60.52H138.164V58.52H118.614V60.52ZM137.185 59.7201L145.345 99.6701L147.304 99.2699L139.144 59.3199L137.185 59.7201ZM147.306 99.6621L155.126 59.7121L153.163 59.3279L145.343 99.2779L147.306 99.6621ZM154.144 60.52H172.844V58.52H154.144V60.52ZM171.873 59.2814L157.423 118.101L159.365 118.579L173.815 59.7586L171.873 59.2814ZM157.422 118.574L173.742 186.234L175.686 185.766L159.366 118.106L157.422 118.574ZM174.714 185H154.824V187H174.714V185ZM155.803 185.796L146.283 140.066L144.325 140.474L153.845 186.204L155.803 185.796ZM144.326 140.063L134.636 185.793L136.593 186.207L146.283 140.477L144.326 140.063ZM135.614 185H116.234V187H135.614V185ZM117.205 186.239L133.865 118.579L131.923 118.101L115.263 185.761L117.205 186.239ZM176.04 59.52V58.52H175.04V59.52H176.04ZM227.38 59.52H228.38V58.52H227.38V59.52ZM227.38 77.88V78.88H228.38V77.88H227.38ZM211.23 77.88V76.88H210.23V77.88H211.23ZM211.23 186V187H212.23V186H211.23ZM192.19 186H191.19V187H192.19V186ZM192.19 77.88H193.19V76.88H192.19V77.88ZM176.04 77.88H175.04V78.88H176.04V77.88ZM176.04 60.52H227.38V58.52H176.04V60.52ZM226.38 59.52V77.88H228.38V59.52H226.38ZM227.38 76.88H211.23V78.88H227.38V76.88ZM210.23 77.88V186H212.23V77.88H210.23ZM211.23 185H192.19V187H211.23V185ZM193.19 186V77.88H191.19V186H193.19ZM192.19 76.88H176.04V78.88H192.19V76.88ZM177.04 77.88V59.52H175.04V77.88H177.04ZM232.873 59.52V58.52H231.873V59.52H232.873ZM276.563 59.52H277.563V58.52H276.563V59.52ZM276.563 77.88V78.88H277.563V77.88H276.563ZM252.083 77.88V76.88H251.083V77.88H252.083ZM252.083 111.03H251.083V112.03H252.083V111.03ZM271.293 111.03H272.293V110.03H271.293V111.03ZM271.293 130.24V131.24H272.293V130.24H271.293ZM252.083 130.24V129.24H251.083V130.24H252.083ZM252.083 166.79H251.083V167.79H252.083V166.79ZM277.583 166.79H278.583V165.79H277.583V166.79ZM277.583 186V187H278.583V186H277.583ZM232.873 186H231.873V187H232.873V186ZM232.873 60.52H276.563V58.52H232.873V60.52ZM275.563 59.52V77.88H277.563V59.52H275.563ZM276.563 76.88H252.083V78.88H276.563V76.88ZM251.083 77.88V111.03H253.083V77.88H251.083ZM252.083 112.03H271.293V110.03H252.083V112.03ZM270.293 111.03V130.24H272.293V111.03H270.293ZM271.293 129.24H252.083V131.24H271.293V129.24ZM251.083 130.24V166.79H253.083V130.24H251.083ZM252.083 167.79H277.583V165.79H252.083V167.79ZM276.583 166.79V186H278.583V166.79H276.583ZM277.583 185H232.873V187H277.583V185ZM233.873 186V59.52H231.873V186H233.873ZM283.176 186H282.176V187H283.176V186ZM283.176 59.52V58.52H282.176V59.52H283.176ZM329.246 65.81L328.458 66.4269L328.467 66.4373L329.246 65.81ZM302.386 76.69V75.69H301.386V76.69H302.386ZM302.386 167.64H301.386V168.64H302.386V167.64ZM312.756 165.43L311.942 164.849L311.938 164.855L311.933 164.861L312.756 165.43ZM312.926 78.9L313.748 78.3308L313.748 78.3308L312.926 78.9ZM284.176 186V59.52H282.176V186H284.176ZM283.176 60.52H312.586V58.52H283.176V60.52ZM312.586 60.52C320.247 60.52 325.438 62.5725 328.459 66.4269L330.033 65.1931C326.48 60.6608 320.564 58.52 312.586 58.52V60.52ZM328.467 66.4373C331.553 70.2685 333.176 76.0128 333.176 83.83H335.176C335.176 75.7805 333.512 69.5115 330.024 65.1827L328.467 66.4373ZM333.176 83.83V160.84H335.176V83.83H333.176ZM333.176 160.84C333.176 169.107 331.399 175.12 328.019 179.059C324.665 182.968 319.585 185 312.586 185V187C319.98 187 325.695 184.839 329.537 180.361C333.354 175.913 335.176 169.347 335.176 160.84H333.176ZM312.586 185H283.176V187H312.586V185ZM301.386 76.69V167.64H303.386V76.69H301.386ZM302.386 168.64H306.976V166.64H302.386V168.64ZM306.976 168.64C309.941 168.64 312.282 167.871 313.578 165.999L311.933 164.861C311.189 165.936 309.677 166.64 306.976 166.64V168.64ZM313.569 166.011C314.888 164.166 315.456 161.356 315.456 157.78H313.456C313.456 161.231 312.89 163.521 311.942 164.849L313.569 166.011ZM315.456 157.78V86.55H313.456V157.78H315.456ZM315.456 86.55C315.456 82.8917 314.953 80.0718 313.748 78.3308L312.103 79.4692C312.938 80.6749 313.456 82.955 313.456 86.55H315.456ZM313.748 78.3308C312.482 76.5029 310.415 75.69 307.826 75.69V77.69C309.996 77.69 311.329 78.3504 312.103 79.4692L313.748 78.3308ZM307.826 75.69H302.386V77.69H307.826V75.69Z" fill="#222222"/>
<path d="M3.91 52.52H21.25L37.74 120.35V52.52H55.25V179H39.61L21.25 106.24V179H3.91V52.52ZM63.0116 52.52H106.702V70.88H82.2216V104.03H101.432V123.24H82.2216V159.79H107.722V179H63.0116V52.52ZM125.894 111.34L111.614 52.52H131.164L139.324 92.47L147.144 52.52H165.844L151.394 111.34L167.714 179H147.824L138.304 133.27L128.614 179H109.234L125.894 111.34ZM169.04 52.52H220.38V70.88H204.23V179H185.19V70.88H169.04V52.52ZM225.873 52.52H269.563V70.88H245.083V104.03H264.293V123.24H245.083V159.79H270.583V179H225.873V52.52ZM276.176 179V52.52H305.586C313.406 52.52 318.959 54.6167 322.246 58.81C325.532 62.89 327.176 68.8967 327.176 76.83V153.84C327.176 170.613 319.979 179 305.586 179H276.176ZM295.386 69.69V160.64H299.976C302.809 160.64 304.736 159.903 305.756 158.43C306.889 156.843 307.456 154.293 307.456 150.78V79.55C307.456 75.9233 306.946 73.3733 305.926 71.9C304.906 70.4267 303.206 69.69 300.826 69.69H295.386Z" fill="#222222"/>
</svg>
