<svg width="30" height="30" viewBox="0 0 30 30" fill="none" xmlns="http://www.w3.org/2000/svg">
<path d="M25.4297 15.9815L15.706 4.77543C15.6182 4.67403 15.5095 4.59271 15.3874 4.53697C15.2653 4.48124 15.1327 4.45239 14.9985 4.45239C14.8643 4.45239 14.7317 4.48124 14.6096 4.53697C14.4876 4.59271 14.3789 4.67403 14.291 4.77543L4.57031 15.9815C4.54093 16.0153 4.52189 16.0568 4.51544 16.1011C4.50899 16.1454 4.51541 16.1906 4.53393 16.2313C4.55245 16.2721 4.5823 16.3066 4.61991 16.3309C4.65753 16.3552 4.70132 16.3681 4.74609 16.3682H7.11913C7.2539 16.3682 7.38281 16.3096 7.47363 16.2071L13.8867 8.81547V25.3125C13.8867 25.4414 13.9922 25.5469 14.1211 25.5469H15.8789C16.0078 25.5469 16.1133 25.4414 16.1133 25.3125V8.81547L22.5264 16.2071C22.6143 16.3096 22.7432 16.3682 22.8809 16.3682H25.2539C25.4531 16.3682 25.5615 16.1338 25.4297 15.9815Z" fill="#222222"/>
</svg>
