<svg width="22" height="22" viewBox="0 0 22 22" fill="none" xmlns="http://www.w3.org/2000/svg">
<path d="M16.7822 15.3094L21.2437 19.7698L19.7697 21.2438L15.3093 16.7823C13.6496 18.1127 11.5853 18.8364 9.45825 18.8333C4.28325 18.8333 0.083252 14.6333 0.083252 9.45834C0.083252 4.28334 4.28325 0.0833435 9.45825 0.0833435C14.6333 0.0833435 18.8333 4.28334 18.8333 9.45834C18.8363 11.5854 18.1126 13.6497 16.7822 15.3094ZM14.6926 14.5365C16.0146 13.177 16.7529 11.3546 16.7499 9.45834C16.7499 5.42918 13.4864 2.16668 9.45825 2.16668C5.42909 2.16668 2.16659 5.42918 2.16659 9.45834C2.16659 13.4865 5.42909 16.75 9.45825 16.75C11.3545 16.753 13.1769 16.0147 14.5364 14.6927L14.6926 14.5365Z" fill="#222222"/>
</svg>
