<svg width="30" height="30" viewBox="0 0 30 30" fill="none" xmlns="http://www.w3.org/2000/svg">
<path d="M5.00001 8.01754L0.946259 3.96504L2.71501 2.19629L6.76751 6.25004H25.82C26.0148 6.25003 26.207 6.29556 26.3811 6.383C26.5552 6.47044 26.7065 6.59737 26.8228 6.75366C26.9391 6.90995 27.0173 7.09127 27.0511 7.28315C27.0849 7.47503 27.0734 7.67215 27.0175 7.85879L24.0175 17.8588C23.9403 18.1164 23.7821 18.3422 23.5664 18.5028C23.3507 18.6634 23.0889 18.7501 22.82 18.75H7.50001V21.25H21.25V23.75H6.25001C5.91849 23.75 5.60055 23.6183 5.36613 23.3839C5.1317 23.1495 5.00001 22.8316 5.00001 22.5V8.01754ZM7.50001 8.75004V16.25H21.89L24.14 8.75004H7.50001ZM6.87501 28.75C6.37773 28.75 5.90081 28.5525 5.54918 28.2009C5.19755 27.8492 5.00001 27.3723 5.00001 26.875C5.00001 26.3778 5.19755 25.9008 5.54918 25.5492C5.90081 25.1976 6.37773 25 6.87501 25C7.37229 25 7.8492 25.1976 8.20083 25.5492C8.55246 25.9008 8.75001 26.3778 8.75001 26.875C8.75001 27.3723 8.55246 27.8492 8.20083 28.2009C7.8492 28.5525 7.37229 28.75 6.87501 28.75ZM21.875 28.75C21.3777 28.75 20.9008 28.5525 20.5492 28.2009C20.1976 27.8492 20 27.3723 20 26.875C20 26.3778 20.1976 25.9008 20.5492 25.5492C20.9008 25.1976 21.3777 25 21.875 25C22.3723 25 22.8492 25.1976 23.2008 25.5492C23.5525 25.9008 23.75 26.3778 23.75 26.875C23.75 27.3723 23.5525 27.8492 23.2008 28.2009C22.8492 28.5525 22.3723 28.75 21.875 28.75Z" fill="#222222"/>
</svg>
