<?xml version="1.0" standalone="no"?>
<!DOCTYPE svg PUBLIC "-//W3C//DTD SVG 20010904//EN"
 "http://www.w3.org/TR/2001/REC-SVG-20010904/DTD/svg10.dtd">
<svg version="1.0" xmlns="http://www.w3.org/2000/svg"
 width="1088.000000pt" height="1088.000000pt" viewBox="0 0 1088.000000 1088.000000"
 preserveAspectRatio="xMidYMid meet">
<metadata>
Created by potrace 1.14, written by Peter Selinger 2001-2017
</metadata>
<g transform="translate(0.000000,1088.000000) scale(0.100000,-0.100000)"
fill="#000000" stroke="none">
<path d="M0 5475 l0 -4285 585 -2 c383 -2 586 0 588 7 2 6 3 1109 2 2453 0
1343 3 2442 6 2442 4 0 9 -15 12 -32 8 -47 18 -91 24 -108 7 -18 9 -27 16 -60
3 -14 8 -32 11 -40 3 -8 8 -26 10 -40 3 -14 16 -70 31 -124 14 -55 27 -110 29
-123 3 -12 8 -28 11 -34 4 -6 8 -23 10 -37 2 -15 35 -150 73 -299 38 -150 67
-273 65 -273 -3 0 -1 -6 4 -12 6 -7 16 -42 23 -78 7 -36 17 -72 21 -81 5 -9
11 -29 14 -45 9 -53 13 -69 29 -124 8 -30 18 -70 21 -89 3 -19 8 -38 11 -43 3
-5 7 -18 10 -31 4 -23 7 -37 23 -99 5 -21 6 -38 2 -38 -3 0 -1 -4 6 -8 6 -4
14 -21 17 -37 2 -17 5 -30 6 -30 1 0 3 -11 5 -25 6 -31 10 -51 18 -70 3 -8 11
-37 17 -65 13 -55 12 -52 35 -145 9 -36 18 -72 20 -80 2 -8 17 -70 35 -137 17
-67 33 -130 35 -140 2 -10 25 -99 50 -198 26 -99 48 -187 50 -195 1 -8 7 -35
14 -60 6 -25 15 -61 20 -80 5 -19 15 -55 21 -79 7 -24 14 -53 16 -63 18 -79
36 -154 41 -168 3 -8 8 -23 10 -34 2 -10 33 -134 69 -275 36 -141 67 -265 69
-276 2 -11 4 -20 5 -20 2 0 4 -9 6 -20 2 -11 13 -56 24 -100 12 -44 26 -97 31
-117 17 -70 37 -150 55 -218 5 -20 24 -100 30 -125 11 -43 13 -50 14 -50 1 0
3 -9 5 -20 7 -40 61 -244 66 -249 5 -5 528 -7 1650 -6 l567 0 16 73 c8 39 17
83 20 97 2 14 7 32 10 40 3 8 8 32 11 54 3 21 7 41 9 45 2 3 7 23 10 43 5 33
14 76 32 153 3 11 6 29 8 40 2 11 13 65 25 120 13 55 24 109 27 120 2 11 6 31
9 45 3 14 7 36 10 50 5 24 27 130 30 140 1 3 5 23 10 45 10 53 14 71 19 93 7
30 57 266 62 292 2 14 11 57 20 95 9 39 18 81 20 95 3 14 9 44 15 68 5 23 12
59 15 80 3 20 10 45 15 55 5 9 8 17 5 17 -2 0 0 17 5 38 5 20 11 53 15 72 3
19 7 43 10 52 3 9 7 25 9 35 2 10 11 52 20 93 9 41 17 83 18 93 1 9 4 17 7 17
3 0 5 10 6 23 0 12 4 36 7 52 5 25 59 274 73 340 2 11 7 34 10 50 9 44 12 60
14 60 1 0 4 14 6 30 2 17 7 41 11 55 3 14 7 27 8 30 3 12 19 98 29 158 3 17
20 11 22 -8 3 -26 15 -83 18 -89 2 -3 7 -22 10 -41 5 -34 18 -98 30 -150 7
-29 34 -163 41 -200 2 -14 9 -45 15 -70 5 -25 12 -56 14 -70 4 -23 17 -82 29
-135 2 -11 8 -38 12 -60 5 -22 9 -42 10 -45 0 -3 4 -21 8 -40 4 -19 10 -46 13
-60 3 -14 7 -34 9 -45 9 -57 46 -228 49 -234 2 -3 7 -22 10 -41 3 -19 11 -60
17 -90 6 -30 12 -63 12 -72 1 -10 4 -18 7 -18 4 0 6 -10 5 -22 -1 -13 1 -30 5
-38 4 -8 10 -34 14 -58 3 -24 8 -47 11 -52 3 -4 7 -25 10 -45 2 -21 7 -45 9
-54 3 -9 7 -27 10 -41 2 -14 10 -47 16 -75 6 -27 13 -61 15 -75 3 -14 6 -34 9
-45 12 -52 38 -180 41 -203 3 -15 9 -45 14 -67 5 -22 12 -51 14 -65 3 -14 10
-43 15 -65 6 -22 13 -56 16 -75 6 -34 12 -65 20 -105 3 -11 12 -54 21 -95 9
-41 18 -84 20 -95 1 -11 8 -41 14 -68 6 -26 14 -64 17 -85 3 -20 8 -40 10 -43
2 -4 6 -24 9 -45 13 -82 -58 -74 638 -74 1158 -1 1681 1 1685 4 7 8 60 216 55
216 -3 0 -1 6 4 13 6 6 11 19 11 27 0 8 6 33 12 55 6 22 13 51 16 65 9 38 10
44 17 60 4 8 8 26 9 40 2 14 7 31 11 38 5 6 6 12 3 12 -2 0 0 15 5 33 8 26 54
205 75 290 2 9 6 25 9 35 2 9 12 46 20 82 20 77 13 53 70 275 46 178 51 198
59 232 2 10 16 65 31 123 15 58 28 112 30 120 2 8 11 44 20 80 10 36 19 74 21
85 1 11 3 21 4 23 2 1 3 5 4 10 1 4 5 16 9 27 3 11 8 31 11 45 2 14 9 43 15
65 6 22 11 43 11 47 1 4 6 22 11 40 6 18 12 44 15 58 3 14 12 50 20 80 9 30
18 65 20 77 2 12 9 34 14 48 5 14 8 25 6 25 -2 0 14 66 35 147 22 82 41 157
43 168 1 11 6 30 10 42 4 12 8 30 10 40 2 10 12 47 21 83 9 36 19 73 20 83 2
9 6 21 10 26 3 5 7 22 9 38 6 35 10 55 30 123 8 30 18 69 21 85 2 17 14 61 24
99 11 37 20 71 19 75 0 3 1 9 2 14 1 4 4 12 5 17 1 6 3 11 5 13 1 1 3 9 5 18
1 8 13 53 25 100 12 46 23 91 25 99 2 8 13 53 25 100 12 47 23 92 25 100 2 8
22 87 44 175 23 88 44 169 46 180 3 11 21 83 40 160 20 77 38 153 40 168 3 15
10 38 17 50 6 12 10 23 9 25 -4 3 50 223 58 239 3 6 6 -1087 5 -2430 0 -1343
2 -2448 4 -2454 3 -10 130 -13 588 -13 l584 0 0 4285 0 4285 -586 -2 -587 -3
-13 -45 c-7 -25 -27 -103 -44 -175 -40 -166 -39 -162 -54 -230 -1 -5 -5 -19
-9 -30 -3 -11 -8 -33 -11 -48 -3 -16 -10 -43 -15 -60 -6 -18 -12 -43 -15 -57
-3 -14 -14 -63 -26 -110 -11 -47 -23 -94 -25 -105 -2 -11 -4 -20 -5 -20 -1 0
-4 -11 -6 -25 -3 -14 -9 -43 -15 -65 -6 -22 -13 -48 -15 -57 -10 -44 -13 -57
-29 -118 -9 -36 -19 -76 -21 -90 -3 -14 -7 -32 -10 -40 -3 -8 -8 -26 -10 -40
-3 -14 -14 -59 -24 -101 -11 -42 -22 -87 -24 -100 -3 -13 -5 -24 -6 -24 -1 0
-3 -9 -5 -20 -2 -11 -20 -83 -39 -160 -19 -77 -37 -151 -40 -165 -2 -14 -7
-32 -10 -40 -3 -8 -7 -26 -10 -40 -2 -14 -12 -54 -21 -90 -9 -36 -19 -73 -21
-82 -2 -10 -7 -28 -10 -40 -3 -13 -8 -36 -11 -53 -2 -16 -9 -35 -14 -41 -5 -6
-7 -13 -4 -15 2 -3 -2 -26 -10 -52 -8 -26 -15 -51 -15 -55 -1 -12 -9 -43 -30
-132 -12 -47 -23 -96 -26 -110 -3 -14 -7 -32 -10 -40 -3 -8 -8 -26 -10 -40 -3
-14 -10 -43 -16 -65 -5 -22 -11 -47 -13 -55 -2 -8 -13 -53 -24 -100 -12 -47
-24 -98 -27 -114 -3 -16 -7 -33 -10 -38 -3 -5 -7 -18 -10 -31 -7 -40 -12 -60
-44 -187 -35 -142 -38 -154 -46 -194 -2 -16 -7 -33 -10 -37 -3 -5 -7 -21 -9
-36 -3 -16 -23 -100 -45 -188 -23 -88 -43 -169 -44 -180 -2 -11 -9 -40 -16
-65 -7 -25 -14 -53 -16 -62 -2 -10 -6 -26 -8 -35 -2 -10 -10 -40 -16 -68 -6
-27 -14 -59 -17 -70 -12 -51 -24 -102 -28 -120 -2 -11 -4 -20 -5 -20 -2 0 -6
-15 -14 -55 -30 -137 -30 -138 -36 -100 -4 19 -1 41 4 49 7 9 7 12 1 9 -7 -4
-10 744 -9 2238 l1 2244 -593 0 -594 0 -1 -4077 c0 -2407 -4 -4066 -10 -4048
-5 16 -10 41 -13 55 -2 14 -11 52 -19 85 -9 33 -18 71 -21 85 -2 14 -16 71
-30 126 -14 56 -28 112 -30 125 -3 13 -5 24 -6 24 -1 0 -3 8 -5 19 -2 10 -9
40 -15 66 -6 26 -13 56 -15 66 -2 11 -4 20 -5 22 -2 1 -4 7 -5 12 -1 6 -3 11
-5 13 -1 1 -3 11 -4 22 -2 11 -10 49 -19 85 -53 213 -90 368 -93 385 -1 11 -3
20 -4 20 -1 0 -3 7 -5 15 -2 8 -6 25 -9 38 -11 41 -35 147 -41 172 -2 8 -11
44 -20 80 -10 36 -19 74 -21 85 -5 35 -13 65 -18 73 -5 8 -11 37 -22 102 -3
19 -8 39 -12 44 -3 5 -6 19 -8 30 -1 12 -12 59 -24 106 -12 47 -23 92 -25 100
-6 30 -57 238 -86 355 -17 66 -32 129 -33 141 -2 11 -5 25 -8 30 -4 5 -9 25
-12 44 -3 19 -10 49 -15 67 -5 17 -7 34 -3 37 3 3 -1 6 -8 6 -7 0 -11 3 -8 6
3 3 -1 33 -9 67 -8 34 -17 71 -19 82 -3 11 -7 31 -10 45 -3 14 -9 39 -14 55
-8 25 -96 388 -105 435 -2 8 -4 15 -5 15 -1 0 -3 9 -4 20 -2 11 -15 67 -30
125 -14 58 -28 114 -31 125 -2 11 -12 49 -20 85 -9 36 -18 72 -20 80 -2 8 -13
56 -25 105 -12 50 -22 98 -23 108 -1 9 -4 17 -8 17 -12 0 -1 63 36 210 20 80
38 152 40 160 4 18 23 96 31 125 3 11 7 31 10 44 3 14 7 28 9 32 3 4 7 24 11
45 3 20 10 48 15 61 5 13 6 23 3 23 -2 0 0 8 5 19 6 10 13 33 16 52 6 37 20
93 35 149 5 19 30 121 55 225 25 105 49 206 55 225 13 46 59 231 64 261 3 13
5 24 6 24 1 0 3 7 5 15 10 45 15 69 25 105 6 22 13 51 16 65 3 14 7 33 10 42
3 9 6 25 8 35 2 10 12 47 21 83 21 80 26 99 30 125 2 11 15 65 30 119 14 55
27 109 30 120 2 12 9 41 16 66 6 25 12 52 14 60 2 8 4 15 5 15 1 0 3 9 5 21 7
33 154 635 165 674 6 19 12 44 13 55 1 11 6 25 9 30 4 6 9 29 12 50 3 22 15
74 26 115 11 41 22 84 24 95 3 11 17 67 31 125 15 58 28 112 30 120 2 8 15 62
29 119 14 57 26 106 26 107 0 2 -286 4 -635 4 -598 0 -635 -1 -636 -17 0 -10
-2 -25 -4 -33 -2 -8 -6 -30 -9 -48 -4 -18 -13 -63 -20 -100 -14 -63 -24 -122
-31 -167 -2 -11 -4 -20 -5 -20 -2 0 -6 -20 -13 -65 -4 -19 -13 -69 -22 -110
-9 -41 -18 -86 -20 -100 -3 -14 -7 -36 -10 -50 -2 -14 -9 -47 -15 -75 -5 -27
-12 -63 -16 -80 -3 -16 -7 -41 -9 -55 -2 -14 -4 -25 -5 -25 -2 0 -7 -22 -14
-70 -10 -62 -14 -84 -20 -93 -3 -5 -7 -26 -10 -48 -3 -21 -8 -50 -11 -64 -3
-14 -9 -50 -15 -80 -15 -82 -19 -100 -24 -118 -3 -9 -7 -33 -10 -52 -3 -19 -8
-46 -11 -60 -3 -14 -8 -38 -10 -53 -3 -15 -16 -83 -30 -150 -13 -67 -27 -138
-30 -157 -3 -19 -8 -42 -10 -50 -2 -8 -7 -28 -10 -45 -2 -16 -7 -41 -10 -55
-3 -14 -8 -40 -11 -59 -3 -18 -8 -43 -10 -55 -3 -11 -7 -30 -9 -41 -2 -11 -6
-31 -9 -45 -4 -14 -9 -40 -12 -59 -3 -18 -8 -43 -10 -55 -2 -11 -6 -32 -9 -46
-3 -14 -7 -35 -10 -47 -12 -53 -15 -69 -21 -108 -7 -45 -11 -68 -15 -75 -4 -9
-7 -24 -8 -44 -1 -24 -14 -13 -18 17 -2 12 -11 56 -19 97 -9 41 -18 89 -21
105 -2 17 -8 45 -13 64 -5 19 -7 38 -4 43 3 4 1 8 -3 8 -5 0 -9 8 -9 18 -1 9
-4 29 -7 44 -3 15 -13 63 -21 105 -20 99 -24 118 -37 173 -12 58 -15 74 -28
140 -5 30 -20 100 -31 155 -12 55 -24 111 -26 125 -3 14 -7 35 -9 48 -3 12 -7
34 -10 50 -3 15 -15 70 -26 122 -21 96 -23 107 -34 170 -3 19 -8 46 -12 60
-12 47 -21 95 -29 145 -2 17 -7 37 -10 45 -3 8 -8 26 -10 40 -2 14 -9 45 -14
70 -5 25 -12 56 -14 70 -2 14 -16 84 -31 155 -15 72 -29 139 -30 150 -2 11
-13 65 -25 120 -12 55 -24 116 -26 135 -3 19 -8 42 -11 50 -3 8 -7 24 -9 35
-1 11 -5 34 -9 50 -3 17 -7 37 -9 45 -3 13 -151 15 -1262 15 l-1259 0 0 -2283
c0 -1255 -1 -2282 -3 -2282 -4 0 -21 48 -26 73 -2 12 -14 63 -26 112 -32 136
-40 168 -46 195 -3 14 -16 68 -30 120 -14 52 -27 109 -29 125 -2 17 -8 43 -14
58 -6 15 -13 40 -16 55 -4 25 -9 45 -19 90 -2 9 -16 62 -30 117 -13 55 -27
111 -30 125 -2 14 -7 32 -10 40 -3 8 -7 26 -10 40 -2 14 -14 63 -26 110 -12
47 -23 92 -25 100 -2 8 -8 33 -14 55 -6 22 -12 51 -15 65 -2 14 -5 25 -6 25
-2 0 -4 12 -13 55 -3 14 -8 32 -11 40 -3 8 -8 26 -10 40 -8 40 -12 58 -41 170
-14 58 -28 116 -30 130 -2 14 -4 25 -5 25 -1 0 -3 7 -5 15 -2 8 -22 92 -45
185 -23 94 -43 177 -45 185 -2 8 -4 17 -5 20 -1 3 -3 10 -5 15 -1 6 -3 12 -4
15 -2 3 -4 14 -6 25 -2 11 -5 29 -8 40 -22 89 -49 203 -52 215 -2 8 -11 44
-20 80 -9 36 -18 72 -20 80 -6 27 -55 235 -61 255 -12 40 -35 134 -40 163 -5
23 -51 215 -80 327 -20 80 -26 107 -27 123 0 6 -4 12 -9 12 -5 0 -7 4 -4 8 3
4 1 24 -4 43 -25 98 -40 158 -44 180 -2 13 -7 31 -10 39 -3 8 -8 27 -11 43
-11 58 -16 81 -20 86 -1 3 -20 76 -40 161 -20 85 -39 164 -42 175 -3 11 -8 36
-12 56 -4 19 -11 41 -15 47 -5 9 -155 12 -592 12 l-584 0 0 -4285z m3505 4212
c3 -23 11 -56 16 -73 12 -39 19 -71 25 -107 2 -15 8 -37 14 -47 6 -11 9 -20 6
-20 -3 0 0 -15 5 -32 6 -18 12 -44 15 -58 3 -14 16 -68 29 -120 13 -52 26
-106 29 -120 3 -14 17 -70 31 -125 24 -97 28 -113 39 -163 3 -13 8 -33 12 -45
4 -12 8 -31 10 -42 1 -11 14 -66 28 -122 14 -56 28 -110 29 -120 2 -10 7 -25
10 -33 3 -8 13 -46 21 -85 17 -72 26 -113 30 -130 2 -5 6 -23 10 -40 4 -16 11
-46 16 -65 16 -59 118 -485 120 -502 1 -4 6 -22 11 -40 6 -18 12 -44 15 -58 3
-14 7 -33 10 -42 3 -9 6 -25 8 -35 2 -10 12 -47 21 -83 9 -36 19 -74 21 -85 7
-39 117 -491 131 -540 8 -27 16 -63 18 -80 2 -16 4 -32 5 -35 2 -3 2 -8 1 -12
0 -5 4 -8 10 -8 5 0 8 -4 5 -9 -3 -5 -2 -22 3 -37 7 -23 64 -255 76 -308 1 -6
5 -22 8 -36 4 -14 30 -119 58 -235 l52 -210 -17 -75 c-18 -82 -24 -105 -26
-105 -1 0 -3 -12 -5 -27 -2 -16 -6 -37 -10 -47 -3 -11 -8 -29 -10 -40 -3 -12
-7 -30 -10 -42 -2 -11 -7 -29 -10 -39 -3 -10 -7 -27 -10 -37 -2 -10 -26 -110
-54 -223 -28 -113 -53 -214 -56 -225 -3 -19 -47 -199 -62 -255 -3 -14 -7 -29
-9 -35 -1 -5 -11 -46 -22 -90 -12 -44 -23 -91 -26 -105 -3 -14 -21 -88 -40
-165 -20 -77 -38 -149 -40 -160 -2 -11 -18 -76 -36 -145 -17 -69 -33 -134 -35
-145 -1 -11 -5 -27 -8 -35 -3 -8 -9 -28 -13 -45 -4 -16 -8 -32 -9 -35 -3 -13
-16 -67 -19 -85 -2 -11 -14 -58 -26 -104 -12 -47 -23 -90 -25 -95 -2 -13 -10
-46 -37 -151 -11 -44 -22 -89 -24 -100 -9 -43 -14 -62 -28 -112 -8 -29 -12
-53 -10 -53 3 0 2 -6 -3 -13 -4 -6 -8 -14 -8 -17 -1 -3 -4 -18 -8 -35 -4 -16
-9 -39 -12 -50 -2 -11 -8 -35 -14 -53 -5 -18 -10 -36 -10 -40 -1 -23 -77 -318
-84 -320 -4 -2 -5 -8 -2 -13 3 -5 -1 -31 -9 -59 -8 -27 -13 -50 -10 -50 3 0 2
-6 -3 -12 -8 -14 -9 -17 -18 -63 -5 -27 -14 -64 -21 -90 -2 -5 -12 -48 -23
-95 -12 -47 -25 -98 -30 -115 -5 -16 -15 -56 -22 -88 -7 -32 -15 -60 -18 -62
-3 -1 -6 35 -6 81 0 46 4 84 8 84 5 0 5 5 2 11 -11 16 -12 69 -2 69 4 0 5 5 2
11 -11 16 -12 69 -2 69 4 0 5 5 1 12 -4 6 -6 57 -5 112 1 56 1 115 0 131 -1
31 -1 65 0 100 1 22 1 94 0 140 -1 32 -1 67 0 100 1 11 1 38 1 60 0 22 0 49 1
60 0 11 -1 35 -3 53 -2 17 0 32 5 32 4 0 5 5 2 11 -11 16 -12 69 -2 69 4 0 5
5 2 11 -11 16 -12 69 -2 69 4 0 5 5 1 12 -4 6 -6 57 -5 112 1 56 1 115 0 131
-1 31 -1 65 0 100 1 22 1 94 0 140 -1 32 -1 67 0 100 1 11 1 38 1 60 0 22 0
47 0 55 1 23 0 151 -1 185 -1 31 -1 66 0 100 1 22 1 94 0 140 -1 32 -1 67 0
100 1 22 1 94 0 140 -1 32 -1 67 0 100 1 11 1 38 1 60 0 22 0 47 0 55 1 8 1
56 1 105 -1 50 -1 97 -1 105 0 8 0 33 0 55 0 22 0 47 1 55 0 8 1 29 0 45 -1
17 -1 37 -1 45 1 8 -1 30 -3 48 -2 17 1 32 6 32 4 0 5 5 2 11 -11 16 -12 69
-2 69 4 0 5 5 2 11 -11 16 -12 69 -2 69 4 0 5 5 1 12 -4 6 -6 57 -5 112 1 56
1 115 0 131 -1 31 -1 65 0 100 1 22 1 94 0 140 -1 32 -1 67 0 100 1 11 1 38 1
60 0 22 0 49 1 60 0 11 -1 35 -3 53 -2 17 0 32 5 32 4 0 5 5 2 11 -11 16 -12
69 -2 69 4 0 5 5 2 11 -11 16 -12 69 -2 69 4 0 5 5 1 12 -4 6 -6 50 -6 97 1
47 2 91 2 96 0 6 0 28 0 50 0 22 0 47 0 55 1 8 1 56 1 105 -1 50 -1 97 -1 105
0 8 0 33 0 55 0 22 0 47 0 55 1 22 0 230 -1 265 -1 31 -1 66 0 100 1 22 1 94
0 140 -1 32 -1 67 0 100 1 11 1 38 1 60 0 22 0 47 0 55 1 23 0 151 -1 185 -1
31 -1 66 0 100 1 22 1 94 0 140 -1 32 -1 67 0 100 1 11 1 38 1 60 0 22 0 49 1
60 0 11 -1 35 -3 53 -2 17 0 32 5 32 4 0 5 5 2 11 -11 16 -12 69 -2 69 4 0 5
5 2 11 -11 16 -12 69 -2 69 4 0 5 5 1 12 -4 6 -6 57 -5 112 1 56 1 115 0 131
-1 31 -1 65 0 100 1 22 1 94 0 140 -1 32 -1 67 0 100 1 11 1 38 1 60 0 22 0
49 1 60 0 11 -1 35 -3 53 -2 17 0 32 5 32 4 0 5 5 2 11 -11 16 -12 69 -2 69 4
0 5 5 2 11 -10 15 -12 69 -3 69 4 0 4 8 1 17 -4 9 -6 42 -6 72 1 31 2 73 2 94
1 49 17 39 26 -16z"/>
</g>
</svg>
