<svg width="25" height="25" viewBox="0 0 25 25" fill="none" xmlns="http://www.w3.org/2000/svg">
<path d="M4.16664 6.68124L0.788513 3.30416L2.26247 1.8302L5.63955 5.20833H21.5166C21.679 5.20831 21.8391 5.24626 21.9842 5.31912C22.1293 5.39199 22.2554 5.49777 22.3523 5.62801C22.4492 5.75825 22.5144 5.90935 22.5426 6.06925C22.5707 6.22915 22.5612 6.39342 22.5146 6.54895L20.0146 14.8823C19.9502 15.097 19.8184 15.2852 19.6386 15.419C19.4589 15.5528 19.2407 15.625 19.0166 15.625H6.24997V17.7083H17.7083V19.7917H5.2083C4.93204 19.7917 4.66709 19.6819 4.47174 19.4866C4.27639 19.2912 4.16664 19.0263 4.16664 18.75V6.68124ZM6.24997 7.29166V13.5417H18.2416L20.1166 7.29166H6.24997ZM5.72914 23.9583C5.31474 23.9583 4.91731 23.7937 4.62428 23.5007C4.33126 23.2077 4.16664 22.8102 4.16664 22.3958C4.16664 21.9814 4.33126 21.584 4.62428 21.291C4.91731 20.9979 5.31474 20.8333 5.72914 20.8333C6.14354 20.8333 6.54097 20.9979 6.83399 21.291C7.12702 21.584 7.29164 21.9814 7.29164 22.3958C7.29164 22.8102 7.12702 23.2077 6.83399 23.5007C6.54097 23.7937 6.14354 23.9583 5.72914 23.9583ZM18.2291 23.9583C17.8147 23.9583 17.4173 23.7937 17.1243 23.5007C16.8313 23.2077 16.6666 22.8102 16.6666 22.3958C16.6666 21.9814 16.8313 21.584 17.1243 21.291C17.4173 20.9979 17.8147 20.8333 18.2291 20.8333C18.6435 20.8333 19.041 20.9979 19.334 21.291C19.627 21.584 19.7916 21.9814 19.7916 22.3958C19.7916 22.8102 19.627 23.2077 19.334 23.5007C19.041 23.7937 18.6435 23.9583 18.2291 23.9583Z" fill="#222222"/>
</svg>
