<svg width="21" height="20" viewBox="0 0 21 20" fill="none" xmlns="http://www.w3.org/2000/svg">
<path d="M10.5011 1.71771C11.6912 0.652296 13.2443 0.0832012 14.8411 0.127373C16.4378 0.171545 17.957 0.825628 19.0865 1.95521C20.215 3.08353 20.8691 4.60078 20.9148 6.19593C20.9605 7.79108 20.3943 9.34329 19.3323 10.5344L10.499 19.3802L1.66773 10.5344C0.604456 9.34267 0.0377344 7.78913 0.0839147 6.1927C0.130095 4.59626 0.785674 3.07808 1.91606 1.94983C3.04644 0.821574 4.56587 0.168864 6.16238 0.125699C7.7589 0.0825333 9.31137 0.652188 10.5011 1.71771ZM17.6115 3.42709C16.859 2.67514 15.8472 2.23967 14.7838 2.21004C13.7204 2.1804 12.686 2.55884 11.8927 3.26771L10.5021 4.51563L9.11044 3.26875C8.31673 2.55903 7.28138 2.18018 6.21706 2.21001C5.15273 2.23985 4.14023 2.6761 3.38752 3.42917C2.64196 4.1747 2.20675 5.17515 2.16964 6.22886C2.13252 7.28256 2.49626 8.31116 3.18752 9.1073L10.5 16.4313L17.8125 9.10834C18.5046 8.31188 18.8687 7.28255 18.8314 6.2281C18.794 5.17366 18.3581 4.17263 17.6115 3.42709Z" fill="#222222"/>
</svg>
