<svg width="25" height="25" viewBox="0 0 25 25" fill="none" xmlns="http://www.w3.org/2000/svg">
<path d="M12.501 4.71783C13.6912 3.65242 15.2443 3.08332 16.841 3.1275C18.4378 3.17167 19.957 3.82575 21.0865 4.95533C22.2149 6.08366 22.8691 7.6009 22.9148 9.19605C22.9605 10.7912 22.3943 12.3434 21.3323 13.5345L12.499 22.3803L3.6677 13.5345C2.60443 12.3428 2.0377 10.7892 2.08388 9.19282C2.13006 7.59639 2.78564 6.0782 3.91603 4.94995C5.04641 3.8217 6.56583 3.16899 8.16235 3.12582C9.75887 3.08266 11.3113 3.65231 12.501 4.71783ZM19.6115 6.42721C18.8589 5.67526 17.8472 5.23979 16.7838 5.21016C15.7204 5.18052 14.6859 5.55896 13.8927 6.26783L12.5021 7.51575L11.1104 6.26888C10.3167 5.55915 9.28135 5.1803 8.21703 5.21013C7.1527 5.23997 6.1402 5.67622 5.38749 6.42929C4.64193 7.17482 4.20672 8.17527 4.16961 9.22898C4.13249 10.2827 4.49623 11.3113 5.18749 12.1074L12.5 19.4314L19.8125 12.1085C20.5045 11.312 20.8686 10.2827 20.8313 9.22822C20.794 8.17378 20.3581 7.17275 19.6115 6.42721Z" fill="#F8F8F8"/>
</svg>
