<svg width="25" height="25" viewBox="0 0 25 25" fill="none" xmlns="http://www.w3.org/2000/svg">
<path d="M4.16667 6.68112L0.788544 3.30404L2.2625 1.83008L5.63959 5.2082H21.5167C21.679 5.20819 21.8391 5.24613 21.9842 5.319C22.1293 5.39187 22.2554 5.49765 22.3523 5.62789C22.4493 5.75813 22.5144 5.90923 22.5426 6.06913C22.5708 6.22903 22.5612 6.3933 22.5146 6.54883L20.0146 14.8822C19.9503 15.0968 19.8184 15.285 19.6387 15.4188C19.4589 15.5526 19.2408 15.6249 19.0167 15.6249H6.25V17.7082H17.7083V19.7915H5.20834C4.93207 19.7915 4.66712 19.6818 4.47177 19.4864C4.27642 19.2911 4.16667 19.0261 4.16667 18.7499V6.68112ZM6.25 7.29154V13.5415H18.2417L20.1167 7.29154H6.25ZM5.72917 23.9582C5.31477 23.9582 4.91734 23.7936 4.62431 23.5006C4.33129 23.2075 4.16667 22.8101 4.16667 22.3957C4.16667 21.9813 4.33129 21.5839 4.62431 21.2908C4.91734 20.9978 5.31477 20.8332 5.72917 20.8332C6.14357 20.8332 6.541 20.9978 6.83402 21.2908C7.12705 21.5839 7.29167 21.9813 7.29167 22.3957C7.29167 22.8101 7.12705 23.2075 6.83402 23.5006C6.541 23.7936 6.14357 23.9582 5.72917 23.9582ZM18.2292 23.9582C17.8148 23.9582 17.4173 23.7936 17.1243 23.5006C16.8313 23.2075 16.6667 22.8101 16.6667 22.3957C16.6667 21.9813 16.8313 21.5839 17.1243 21.2908C17.4173 20.9978 17.8148 20.8332 18.2292 20.8332C18.6436 20.8332 19.041 20.9978 19.334 21.2908C19.627 21.5839 19.7917 21.9813 19.7917 22.3957C19.7917 22.8101 19.627 23.2075 19.334 23.5006C19.041 23.7936 18.6436 23.9582 18.2292 23.9582Z" fill="#F8F8F8"/>
</svg>
