<svg width="25" height="25" viewBox="0 0 25 25" fill="none" xmlns="http://www.w3.org/2000/svg">
<path d="M4.16666 22.9165C4.16666 20.7064 5.04463 18.5868 6.60743 17.0239C8.17024 15.4611 10.2899 14.5832 12.5 14.5832C14.7101 14.5832 16.8297 15.4611 18.3925 17.0239C19.9553 18.5868 20.8333 20.7064 20.8333 22.9165H18.75C18.75 21.2589 18.0915 19.6692 16.9194 18.4971C15.7473 17.325 14.1576 16.6665 12.5 16.6665C10.8424 16.6665 9.25267 17.325 8.08057 18.4971C6.90847 19.6692 6.24999 21.2589 6.24999 22.9165H4.16666ZM12.5 13.5415C9.04686 13.5415 6.24999 10.7446 6.24999 7.2915C6.24999 3.83838 9.04686 1.0415 12.5 1.0415C15.9531 1.0415 18.75 3.83838 18.75 7.2915C18.75 10.7446 15.9531 13.5415 12.5 13.5415ZM12.5 11.4582C14.8021 11.4582 16.6667 9.59359 16.6667 7.2915C16.6667 4.98942 14.8021 3.12484 12.5 3.12484C10.1979 3.12484 8.33332 4.98942 8.33332 7.2915C8.33332 9.59359 10.1979 11.4582 12.5 11.4582Z" fill="#F8F8F8"/>
</svg>
