<svg width="24" height="24" viewBox="0 0 24 24" fill="none" xmlns="http://www.w3.org/2000/svg">
<path d="M18.7198 18.2398H5.27984C4.46384 18.2398 3.83984 17.6158 3.83984 16.7998V7.19977C3.83984 6.38377 4.46384 5.75977 5.27984 5.75977H18.7198C19.5358 5.75977 20.1598 6.38377 20.1598 7.19977V16.7998C20.1598 17.6158 19.5358 18.2398 18.7198 18.2398ZM5.27984 6.71977C4.99184 6.71977 4.79984 6.91177 4.79984 7.19977V16.7998C4.79984 17.0878 4.99184 17.2798 5.27984 17.2798H18.7198C19.0078 17.2798 19.1998 17.0878 19.1998 16.7998V7.19977C19.1998 6.91177 19.0078 6.71977 18.7198 6.71977H5.27984Z" fill="#222222"/>
<path d="M4.31982 7.68018H19.6798V10.5602H4.31982V7.68018ZM5.75982 12.4802H6.23982V13.4402H5.75982V12.4802ZM6.71982 12.4802H7.19982V13.4402H6.71982V12.4802ZM7.67982 12.4802H8.15982V13.4402H7.67982V12.4802ZM9.11982 12.4802H9.59982V13.4402H9.11982V12.4802ZM10.0798 12.4802H10.5598V13.4402H10.0798V12.4802ZM11.0398 12.4802H11.5198V13.4402H11.0398V12.4802ZM12.4798 12.4802H12.9598V13.4402H12.4798V12.4802ZM13.4398 12.4802H13.9198V13.4402H13.4398V12.4802ZM14.3998 12.4802H14.8798V13.4402H14.3998V12.4802ZM15.8398 12.4802H16.3198V13.4402H15.8398V12.4802ZM16.7998 12.4802H17.2798V13.4402H16.7998V12.4802ZM17.7598 12.4802H18.2398V13.4402H17.7598V12.4802Z" fill="#222222"/>
</svg>
