<svg width="25" height="25" viewBox="0 0 25 25" fill="none" xmlns="http://www.w3.org/2000/svg">
<path d="M12.5011 4.71771C13.6912 3.6523 15.2443 3.0832 16.8411 3.12737C18.4378 3.17154 19.957 3.82563 21.0865 4.95521C22.215 6.08353 22.8691 7.60078 22.9148 9.19593C22.9605 10.7911 22.3943 12.3433 21.3323 13.5344L12.499 22.3802L3.66773 13.5344C2.60446 12.3427 2.03773 10.7891 2.08391 9.1927C2.1301 7.59626 2.78567 6.07808 3.91606 4.94983C5.04644 3.82157 6.56587 3.16886 8.16238 3.1257C9.7589 3.08253 11.3114 3.65219 12.5011 4.71771ZM19.6115 6.42709C18.859 5.67514 17.8472 5.23967 16.7838 5.21004C15.7204 5.1804 14.686 5.55884 13.8927 6.26771L12.5021 7.51563L11.1104 6.26875C10.3167 5.55903 9.28138 5.18018 8.21706 5.21001C7.15273 5.23985 6.14023 5.6761 5.38752 6.42917C4.64196 7.1747 4.20675 8.17515 4.16964 9.22886C4.13252 10.2826 4.49626 11.3112 5.18752 12.1073L12.5 19.4313L19.8125 12.1083C20.5046 11.3119 20.8687 10.2825 20.8314 9.2281C20.794 8.17366 20.3581 7.17263 19.6115 6.42709Z" fill="#222222"/>
</svg>
