<svg width="25" height="25" viewBox="0 0 25 25" fill="none" xmlns="http://www.w3.org/2000/svg">
<path d="M4.16663 22.9167C4.16663 20.7065 5.0446 18.5869 6.6074 17.0241C8.17021 15.4613 10.2898 14.5833 12.5 14.5833C14.7101 14.5833 16.8297 15.4613 18.3925 17.0241C19.9553 18.5869 20.8333 20.7065 20.8333 22.9167H18.75C18.75 21.2591 18.0915 19.6693 16.9194 18.4972C15.7473 17.3251 14.1576 16.6667 12.5 16.6667C10.8424 16.6667 9.25264 17.3251 8.08054 18.4972C6.90844 19.6693 6.24996 21.2591 6.24996 22.9167H4.16663ZM12.5 13.5417C9.04683 13.5417 6.24996 10.7448 6.24996 7.29166C6.24996 3.83853 9.04683 1.04166 12.5 1.04166C15.9531 1.04166 18.75 3.83853 18.75 7.29166C18.75 10.7448 15.9531 13.5417 12.5 13.5417ZM12.5 11.4583C14.802 11.4583 16.6666 9.59374 16.6666 7.29166C16.6666 4.98957 14.802 3.12499 12.5 3.12499C10.1979 3.12499 8.33329 4.98957 8.33329 7.29166C8.33329 9.59374 10.1979 11.4583 12.5 11.4583Z" fill="#222222"/>
</svg>
